<?xml version="1.0" encoding="UTF-8" standalone="no"?><svg xmlns="http://www.w3.org/2000/svg" xmlns:xlink="http://www.w3.org/1999/xlink" fill="#ffffff" height="416.5" preserveAspectRatio="xMidYMid meet" version="1" viewBox="0.0 0.0 362.9 416.5" width="362.9" zoomAndPan="magnify"><g id="change1_1"><path d="M52.85,416.48c0.82-0.64,1.43-1.59,1.98-2.86c25.89-59.89,51.86-119.75,77.82-179.61c3.43-7.92,6.88-15.83,10.69-24.59 c1.04,1.68,1.64,2.45,2.02,3.31c3.72,8.38,7.48,16.75,11.07,25.18c1.15,2.71,2.78,3.83,5.82,3.8c14.32-0.12,28.63-0.01,42.95-0.04 c1.88,0,3.76-0.3,6.51-0.53c-22.45-51.82-44.6-102.93-66.74-154.05c-0.45-0.1-0.9-0.21-1.34-0.31 C95.81,196.56,47.98,306.34,0,416.48H52.85z"/></g><g id="change1_2"><path d="M256.1,307.79c4.37-0.02,6.67,1.24,8.46,5.42c14.25,33.34,28.77,66.55,43.14,99.84c0.7,1.63,1.5,2.76,2.7,3.43h52.46 c-0.61-1.62-0.93-2.55-1.31-3.45c-7.02-16.3-14.03-32.6-21.08-48.89c-14.34-33.13-28.7-66.26-43.02-99.4 c-1.13-2.62-2.28-4.41-5.81-4.4c-48.67,0.14-97.34,0.11-146.02,0.05c-2.8,0-4.29,0.85-5.41,3.55c-4.67,11.25-9.61,22.39-14.43,33.59 c-1.38,3.21-2.7,6.45-4.33,10.36c3,0,5.09,0,7.18,0C171.11,307.88,213.6,307.93,256.1,307.79z"/></g><g id="change1_3"><path d="M287.8,241.4c-3.67,0-6.04,0-8.41,0c-13.71,0-27.42-0.12-41.13,0.07c-3.54,0.05-5.34-1.14-6.74-4.38 c-20.7-47.74-41.52-95.42-62.31-143.12c-4.33-9.93-8.72-19.83-12.9-29.82c-0.61-1.46-0.79-3.59-0.19-4.99 c8.02-18.82,16.2-37.56,24.38-56.31c0.38-0.88,1.18-1.58,2.15-2.85C217.68,80.43,252.48,160.33,287.8,241.4z"/></g><g id="change1_4"><path d="M233.8,414.17c0.47,1.09,1.03,1.81,1.7,2.31h52.31c-0.32-0.92-0.51-1.55-0.76-2.12c-12.23-28.28-24.43-56.57-36.84-84.77 c-0.61-1.38-3.15-2.68-4.81-2.71c-13.25-0.22-26.51-0.12-39.77-0.12c-2.97,0-5.94,0-9.49,0c0.4,1.57,0.47,2.17,0.71,2.7 C209.17,357.68,221.56,385.89,233.8,414.17z"/></g></svg>