<?xml version="1.0" encoding="UTF-8"?><svg xmlns="http://www.w3.org/2000/svg" xmlns:xlink="http://www.w3.org/1999/xlink" height="60.0" preserveAspectRatio="xMidYMid meet" version="1.0" viewBox="4.5 2.0 55.0 60.0" width="55.0" zoomAndPan="magnify"><g><g><linearGradient gradientUnits="userSpaceOnUse" id="a" x1="4.504" x2="59.496" xlink:actuate="onLoad" xlink:show="other" xlink:type="simple" xmlns:xlink="http://www.w3.org/1999/xlink" y1="39.653" y2="39.653"><stop offset="0" stop-color="#f62c84"/><stop offset=".233" stop-color="#e1309c"/><stop offset=".721" stop-color="#ab38d9"/><stop offset="1" stop-color="#8a3eff"/></linearGradient><path d="M57.9,35.66c-0.82-0.73-2.09-0.66-2.82,0.17c-0.73,0.83-0.66,2.09,0.17,2.82 c0.18,0.16,0.25,0.28,0.26,0.24c-0.19,0.57-2.62,2.05-7.04,2.05c-2.08,0-3.7-0.33-4.87-0.73c-0.01,0-0.01,0-0.02-0.01 c-1.31-0.45-2.05-0.98-2.14-1.24c0.06-0.19,0.85-1.09,3.36-1.66c1.08-0.24,1.75-1.32,1.51-2.39c-0.25-1.08-1.32-1.76-2.39-1.51 c-0.15,0.03-0.28,0.08-0.42,0.12l-11.73-7.99c1.33-0.99,2.09-2.25,2.09-3.66c0-0.99-0.41-2.87-3.16-4.34 c-0.98-0.52-2.19-0.15-2.71,0.82c-0.52,0.97-0.15,2.19,0.82,2.71c0.76,0.41,1.02,0.76,1.05,0.77c-0.17,0.54-2.36,1.94-6.53,2.04 c-0.04,0-0.08,0-0.11,0.01c-0.13,0.01-0.25,0.01-0.38,0.01c-0.13,0-0.25,0-0.38-0.01c-0.04,0-0.08-0.01-0.11-0.01 c-4.17-0.11-6.37-1.5-6.54-1.96c0.03-0.09,0.29-0.44,1.05-0.85c0.97-0.52,1.34-1.73,0.82-2.71s-1.73-1.34-2.71-0.82 c-2.75,1.47-3.16,3.35-3.16,4.34c0,3.37,4.27,5.83,10.38,6c0.22,0.02,0.43,0.02,0.65,0.02s0.43,0,0.65-0.02 c1.41-0.04,2.72-0.21,3.91-0.47l11.88,8.09c-1.17,0.96-1.82,2.14-1.82,3.44c0,1.18,0.5,2.19,1.34,3.03l-18.33,9.17 c-0.99,0.49-1.39,1.7-0.89,2.68c0.31,0.61,0.88,0.98,1.51,1.07c0.11,0.1,0.24,0.19,0.38,0.26c0.82,0.42,1.09,0.79,1.12,0.81 c-0.17,0.53-2.49,1.97-6.79,2.05c-0.08,0-0.16,0-0.24,0c-0.09,0-0.17,0-0.34-0.01c-4.21-0.07-6.53-1.51-6.7-1.96 c0.03-0.1,0.3-0.47,1.12-0.89c0.98-0.51,1.36-1.71,0.86-2.7s-1.72-1.36-2.7-0.86c-2.85,1.48-3.27,3.39-3.27,4.4 c0,3.43,4.37,5.89,10.54,6C15.22,62,15.37,62,15.54,62c0.17,0,0.33,0,0.4-0.01c6.26-0.11,10.62-2.58,10.62-6 c0-0.68-0.2-1.76-1.18-2.85l17.77-8.89c1.64,0.46,3.48,0.7,5.32,0.7c5.48,0,11.03-2.06,11.03-6.01 C59.5,38.09,59.22,36.84,57.9,35.66z" fill="url(#a)"/><linearGradient gradientUnits="userSpaceOnUse" id="b" x1="15.15" x2="30.487" xlink:actuate="onLoad" xlink:show="other" xlink:type="simple" xmlns:xlink="http://www.w3.org/1999/xlink" y1="11.126" y2="11.126"><stop offset="0" stop-color="#f62c84"/><stop offset=".233" stop-color="#e1309c"/><stop offset=".721" stop-color="#ab38d9"/><stop offset="1" stop-color="#8a3eff"/></linearGradient><path d="M22.82,20.25c0.54,0,1.05-0.22,1.43-0.6c1.46-1.49,6.24-6.64,6.24-10.19 c0-4.11-3.44-7.46-7.67-7.46s-7.67,3.35-7.67,7.46c0,3.56,4.78,8.7,6.24,10.19C21.77,20.03,22.28,20.25,22.82,20.25z M22.82,6 c2.02,0,3.67,1.55,3.67,3.46c0,1.06-1.71,3.58-3.67,5.84c-1.95-2.26-3.67-4.78-3.67-5.84C19.15,7.55,20.8,6,22.82,6z" fill="url(#b)"/><linearGradient gradientUnits="userSpaceOnUse" id="c" x1="43.529" x2="58.866" xlink:actuate="onLoad" xlink:show="other" xlink:type="simple" xmlns:xlink="http://www.w3.org/1999/xlink" y1="28.794" y2="28.794"><stop offset="0" stop-color="#f62c84"/><stop offset=".233" stop-color="#e1309c"/><stop offset=".721" stop-color="#ab38d9"/><stop offset="1" stop-color="#8a3eff"/></linearGradient><path d="M51.2,37.92c0.54,0,1.05-0.22,1.43-0.6c1.46-1.49,6.24-6.64,6.24-10.19c0-4.11-3.44-7.46-7.67-7.46 s-7.67,3.35-7.67,7.46c0,3.56,4.78,8.7,6.24,10.19C50.15,37.7,50.66,37.92,51.2,37.92z M51.2,23.67c2.02,0,3.67,1.55,3.67,3.46 c0,1.06-1.71,3.58-3.67,5.84c-1.95-2.26-3.67-4.78-3.67-5.84C47.53,25.22,49.17,23.67,51.2,23.67z" fill="url(#c)"/><linearGradient gradientUnits="userSpaceOnUse" id="d" x1="7.353" x2="22.689" xlink:actuate="onLoad" xlink:show="other" xlink:type="simple" xmlns:xlink="http://www.w3.org/1999/xlink" y1="44.695" y2="44.695"><stop offset="0" stop-color="#f62c84"/><stop offset=".233" stop-color="#e1309c"/><stop offset=".721" stop-color="#ab38d9"/><stop offset="1" stop-color="#8a3eff"/></linearGradient><path d="M15.02,53.82c0.54,0,1.05-0.22,1.43-0.6c1.46-1.49,6.24-6.64,6.24-10.19 c0-4.11-3.44-7.46-7.67-7.46c-4.23,0-7.67,3.35-7.67,7.46c0,3.55,4.78,8.7,6.24,10.19C13.97,53.6,14.48,53.82,15.02,53.82z M15.02,39.57c2.02,0,3.67,1.55,3.67,3.46c0,1.06-1.71,3.58-3.67,5.84c-1.93-2.24-3.67-4.8-3.67-5.84 C11.35,41.12,13,39.57,15.02,39.57z" fill="url(#d)"/></g></g></svg>