<?xml version="1.0" encoding="UTF-8" standalone="no"?><svg xmlns="http://www.w3.org/2000/svg" xmlns:xlink="http://www.w3.org/1999/xlink" fill="#ffffff" height="62" preserveAspectRatio="xMidYMid meet" version="1" viewBox="0.0 0.0 62.0 62.0" width="62" zoomAndPan="magnify"><g id="change1_1"><path d="M 51 30 C 51.550781 30 52 30.449219 52 31 L 52 39 L 54 39 L 54 33 C 54 32.449219 54.449219 32 55 32 C 55.550781 32 56 32.449219 56 33 L 56 39 L 58 39 L 58 35 C 58 34.449219 58.449219 34 59 34 C 59.550781 34 60 34.449219 60 35 L 60 47.054688 C 60 47.519531 59.890625 47.984375 59.683594 48.398438 L 58 51.765625 L 58 54 L 42 54 L 42 51.667969 L 39.4375 48.25 C 39.125 47.832031 38.925781 47.339844 38.859375 46.824219 L 38.152344 41.152344 C 38.027344 40.164062 37.671875 39.203125 37.117188 38.375 L 36.089844 36.832031 C 36.03125 36.742188 36 36.640625 36 36.535156 C 36 36.238281 36.238281 36 36.535156 36 C 38.648438 36 40.480469 37.503906 40.894531 39.574219 L 42.179688 46 L 44.617188 46 L 45.472656 44.292969 C 45.816406 43.601562 46 42.828125 46 42.054688 L 46 21 C 46 20.449219 46.449219 20 47 20 C 47.550781 20 48 20.449219 48 21 L 48 39 L 50 39 L 50 31 C 50 30.449219 50.449219 30 51 30 Z M 60 60 L 40 60 L 40 56 L 60 56 Z M 46.667969 18.035156 C 43.789062 16.089844 41.539062 13.386719 40.167969 10.1875 C 40.054688 9.925781 40 9.652344 40 9.273438 C 40 8.726562 40.222656 8.191406 40.609375 7.804688 L 42 6.414062 C 42.527344 5.886719 43.472656 5.886719 44 6.414062 L 45.761719 8.175781 C 45.914062 8.332031 46 8.53125 46 8.75 L 46 8.882812 C 46 9.191406 45.828125 9.46875 45.550781 9.605469 C 44.59375 10.085938 44 11.046875 44 12.117188 L 44 12.25 C 44 13 44.292969 13.707031 44.824219 14.238281 L 45.761719 15.175781 C 46.292969 15.707031 47 16 47.75 16 L 47.882812 16 C 48.953125 16 49.914062 15.40625 50.394531 14.449219 C 50.53125 14.171875 50.808594 14 51.117188 14 L 51.25 14 C 51.46875 14 51.667969 14.085938 51.824219 14.238281 L 53.585938 16 C 53.847656 16.261719 54 16.628906 54 17 C 54 17.371094 53.847656 17.738281 53.585938 18 L 52.195312 19.390625 C 51.582031 20.003906 50.574219 20.167969 49.796875 19.78125 L 49.710938 19.738281 C 49.234375 18.714844 48.203125 18 47 18 C 46.886719 18 46.777344 18.019531 46.667969 18.035156 Z M 37 24 C 35.34375 24 34 22.65625 34 21 L 34 5 C 34 3.34375 35.34375 2 37 2 L 57 2 C 58.65625 2 60 3.34375 60 5 L 60 21 C 60 22.65625 58.65625 24 57 24 L 50 24 L 50 21.914062 C 50.238281 21.960938 50.480469 22 50.726562 22 C 51.796875 22 52.847656 21.566406 53.609375 20.804688 L 55 19.414062 C 55.644531 18.769531 56 17.910156 56 17 C 56 16.089844 55.644531 15.230469 55 14.585938 L 53.238281 12.824219 C 52.707031 12.292969 52 12 51.25 12 L 51.117188 12 C 50.046875 12 49.085938 12.59375 48.605469 13.550781 C 48.46875 13.828125 48.191406 14 47.882812 14 L 47.75 14 C 47.53125 14 47.332031 13.914062 47.175781 13.761719 L 46.238281 12.824219 C 46.085938 12.667969 46 12.46875 46 12.25 L 46 12.117188 C 46 11.808594 46.171875 11.53125 46.449219 11.394531 C 47.40625 10.914062 48 9.953125 48 8.882812 L 48 8.75 C 48 8 47.707031 7.292969 47.175781 6.761719 L 45.414062 5 C 44.125 3.710938 41.875 3.710938 40.585938 5 L 39.195312 6.390625 C 38.433594 7.152344 38 8.203125 38 9.367188 C 38 9.921875 38.109375 10.464844 38.328125 10.972656 C 39.71875 14.210938 41.90625 16.992188 44.699219 19.097656 C 44.269531 19.617188 44 20.273438 44 21 L 44 24 Z M 57 26 C 59.757812 26 62 23.757812 62 21 L 62 5 C 62 2.242188 59.757812 0 57 0 L 37 0 C 34.242188 0 32 2.242188 32 5 L 32 21 C 32 23.757812 34.242188 26 37 26 L 44 26 L 44 42.054688 C 44 42.511719 43.894531 42.964844 43.695312 43.375 L 42.855469 39.179688 C 42.257812 36.179688 39.597656 34 36.535156 34 C 35.136719 34 34 35.136719 34 36.535156 C 34 37.035156 34.148438 37.523438 34.425781 37.941406 L 35.457031 39.484375 C 35.835938 40.054688 36.082031 40.71875 36.167969 41.398438 L 36.875 47.070312 C 36.984375 47.933594 37.316406 48.753906 37.835938 49.449219 L 40 52.332031 L 40 54 L 38 54 L 38 62 L 62 62 L 62 54 L 60 54 L 60 52.238281 L 61.472656 49.292969 C 61.816406 48.601562 62 47.828125 62 47.054688 L 62 35 C 62 33.34375 60.65625 32 59 32 C 58.605469 32 58.230469 32.082031 57.882812 32.21875 C 57.539062 30.945312 56.382812 30 55 30 C 54.605469 30 54.230469 30.082031 53.882812 30.21875 C 53.539062 28.945312 52.382812 28 51 28 C 50.648438 28 50.316406 28.074219 50 28.183594 L 50 26 L 57 26" fill="inherit"/><path d="M 28 53 C 28 54.65625 26.65625 56 25 56 L 5 56 C 3.34375 56 2 54.65625 2 53 L 2 37 C 2 35.34375 3.34375 34 5 34 L 25 34 C 26.65625 34 28 35.34375 28 37 Z M 25 32 L 5 32 C 2.242188 32 0 34.242188 0 37 L 0 53 C 0 55.757812 2.242188 58 5 58 L 25 58 C 27.757812 58 30 55.757812 30 53 L 30 37 C 30 34.242188 27.757812 32 25 32" fill="inherit"/><path d="M 28 21 C 28 22.65625 26.65625 24 25 24 L 5 24 C 3.34375 24 2 22.65625 2 21 L 2 5 C 2 3.34375 3.34375 2 5 2 L 25 2 C 26.65625 2 28 3.34375 28 5 Z M 25 0 L 5 0 C 2.242188 0 0 2.242188 0 5 L 0 21 C 0 23.757812 2.242188 26 5 26 L 25 26 C 27.757812 26 30 23.757812 30 21 L 30 5 C 30 2.242188 27.757812 0 25 0" fill="inherit"/><path d="M 15 16 C 13.898438 16 13 15.101562 13 14 L 13 12 C 13 10.898438 13.898438 10 15 10 C 16.101562 10 17 10.898438 17 12 L 17 14 C 17 15.101562 16.101562 16 15 16 Z M 15 4 C 10.589844 4 7 7.589844 7 12 L 7 14 C 7 18.410156 10.589844 22 15 22 L 15 20 C 11.691406 20 9 17.308594 9 14 L 9 12 C 9 8.691406 11.691406 6 15 6 C 18.308594 6 21 8.691406 21 12 L 21 17 C 21 17.550781 20.550781 18 20 18 C 19.449219 18 19 17.550781 19 17 L 19 12 C 19 9.792969 17.207031 8 15 8 C 12.792969 8 11 9.792969 11 12 L 11 14 C 11 16.207031 12.792969 18 15 18 C 15.75 18 16.441406 17.78125 17.042969 17.421875 C 17.25 18.875 18.488281 20 20 20 C 21.65625 20 23 18.65625 23 17 L 23 12 C 23 7.589844 19.410156 4 15 4" fill="inherit"/><path d="M 10.167969 45.582031 L 6 48.917969 L 6 41.414062 Z M 17.707031 44.878906 C 16.261719 46.324219 13.738281 46.324219 12.292969 44.878906 L 7.414062 40 L 22.585938 40 Z M 19.832031 45.585938 L 24 41.414062 L 24 48.917969 Z M 11.664062 46.949219 C 12.636719 47.628906 13.789062 48 15 48 C 16.210938 48 17.363281 47.628906 18.335938 46.949219 L 22.148438 50 L 7.851562 50 Z M 4 52 L 26 52 L 26 38 L 4 38 L 4 52" fill="inherit"/></g></svg>